<svg xmlns="http://www.w3.org/2000/svg" width="704" height="137" viewBox="0 0 704 137">
  <g id="Group_2" data-name="Group 2" transform="translate(-793 -235)">
    <g id="Polygon_1" data-name="Polygon 1" transform="translate(793 235)" fill="#ce5c8c">
      <path d="M 102.2235870361328 128 L 49.77641677856445 128 C 45.78125 128 42.09544372558594 125.829719543457 40.15739059448242 122.3361129760742 L 13.2522497177124 73.83611297607422 C 11.39869403839111 70.49480438232422 11.39869403839111 66.50519561767578 13.25227737426758 63.16386032104492 L 40.15739059448242 14.66388893127441 C 42.0954704284668 11.17027759552002 45.78125 9 49.77641677856445 9 L 102.2236099243164 9 C 106.2187805175781 9 109.9045867919922 11.17027759552002 111.8426666259766 14.66391658782959 L 138.7477569580078 63.16388702392578 C 140.6013031005859 66.50519561767578 140.6013031005859 70.49480438232422 138.7477569580078 73.83608245849609 L 111.8426361083984 122.3361129760742 C 109.9045867919922 125.829719543457 106.21875 128 102.2235870361328 128 Z" stroke="none"/>
      <path d="M 49.77642822265625 18 C 49.05003356933594 18 48.37985992431641 18.39460754394531 48.02749633789062 19.02978515625 L 21.12239074707031 67.52978515625 C 20.78535461425781 68.13728332519531 20.78535461425781 68.86271667480469 21.12239074707031 69.47021484375 L 48.02749633789062 117.97021484375 C 48.37989044189453 118.6053924560547 49.05003356933594 119 49.77642822265625 119 L 102.2236022949219 119 C 102.9499969482422 119 103.6201019287109 118.6053924560547 103.9725036621094 117.9701766967773 L 130.8776397705078 69.47014617919922 C 131.2146453857422 68.86264038085938 131.214599609375 68.13728332519531 130.8776092529297 67.52978515625 L 103.9725036621094 19.02978515625 C 103.6201477050781 18.39460754394531 102.9499969482422 18 102.2236022949219 18 L 49.77642822265625 18 M 49.77642822265625 0 L 102.2236022949219 0 C 109.4913940429688 0 116.187141418457 3.942611694335938 119.7127532958984 10.29796600341797 L 146.6178588867188 58.79796600341797 C 149.9656372070312 64.83278656005859 149.9656372070312 72.16721343994141 146.6178588867188 78.20199584960938 L 119.7127532958984 126.7019958496094 C 116.187141418457 133.0573883056641 109.4913940429688 137 102.2236022949219 137 L 49.77642822265625 137 C 42.50864410400391 137 35.81285858154297 133.0573883056641 32.28724670410156 126.7019958496094 L 5.38214111328125 78.20203399658203 C 2.03436279296875 72.16721343994141 2.03436279296875 64.83278656005859 5.38214111328125 58.79796600341797 L 32.28724670410156 10.29796600341797 C 35.81285858154297 3.942611694335938 42.50864410400391 0 49.77642822265625 0 Z" stroke="none" fill="#86456e"/>
    </g>
    <line id="Line_18" data-name="Line 18" y1="51" x2="26" transform="translate(1038.5 277.5)" fill="none" stroke="#cdc3d3" stroke-width="7"/>
    <text id="POLL_BUDDY" data-name="POLL BUDDY" transform="translate(1233 338)" fill="#cdc3d3" font-size="100" font-family="Spud-Regular, Spud"><tspan x="-263.1" y="0">POLL BUDDY</tspan></text>
    <line id="Line_8" data-name="Line 8" y1="31" x2="18" transform="translate(834.5 272.5)" fill="none" stroke="#c4acd3" stroke-linecap="round" stroke-width="7"/>
    <line id="Line_9" data-name="Line 9" x1="34" transform="translate(852.5 272.5)" fill="none" stroke="#c4acd3" stroke-linecap="round" stroke-width="7"/>
    <line id="Line_10" data-name="Line 10" x2="18" y2="31" transform="translate(834.5 303.5)" fill="none" stroke="#c4acd3" stroke-linecap="round" stroke-width="7"/>
    <line id="Line_11" data-name="Line 11" x2="17" y2="31" transform="translate(886.5 272.5)" fill="none" stroke="#623c79" stroke-linecap="round" stroke-width="7"/>
    <line id="Line_12" data-name="Line 12" x2="34" transform="translate(852.5 334.5)" fill="none" stroke="#623c79" stroke-linecap="round" stroke-width="7"/>
    <line id="Line_13" data-name="Line 13" x1="17" y2="31" transform="translate(886.5 303.5)" fill="none" stroke="#623c79" stroke-linecap="round" stroke-width="7"/>
    <line id="Line_16" data-name="Line 16" y1="31" x2="16" transform="translate(852.5 303.5)" fill="none" stroke="#623c79" stroke-linecap="round" stroke-width="7"/>
    <line id="Line_17" data-name="Line 17" x1="35" transform="translate(868.5 303.5)" fill="none" stroke="#623c79" stroke-linecap="round" stroke-width="7"/>
    <line id="Line_14" data-name="Line 14" x1="34" transform="translate(834.5 303.5)" fill="none" stroke="#c4acd3" stroke-linecap="round" stroke-width="7"/>
    <line id="Line_15" data-name="Line 15" y1="31" x2="18" transform="translate(868.5 272.5)" fill="none" stroke="#c4acd3" stroke-linecap="round" stroke-width="7"/>
  </g>
</svg>
