<svg xmlns="http://www.w3.org/2000/svg" width="699.115" height="137" viewBox="0 0 699.115 137">
  <g id="Group_2" data-name="Group 2" transform="translate(-793 -235)">
    <g id="Polygon_1" data-name="Polygon 1" transform="translate(793 235)" fill="#ce5c8c">
      <path d="M 102.2235870361328 128 L 49.77641677856445 128 C 45.78125 128 42.09544372558594 125.829719543457 40.15739059448242 122.3361129760742 L 13.2522497177124 73.83611297607422 C 11.39869403839111 70.49480438232422 11.39869403839111 66.50519561767578 13.25227737426758 63.16386032104492 L 40.15739059448242 14.66388893127441 C 42.0954704284668 11.17027759552002 45.78125 9 49.77641677856445 9 L 102.2236099243164 9 C 106.2187805175781 9 109.9045867919922 11.17027759552002 111.8426666259766 14.66391658782959 L 138.7477569580078 63.16388702392578 C 140.6013031005859 66.50519561767578 140.6013031005859 70.49480438232422 138.7477569580078 73.83608245849609 L 111.8426361083984 122.3361129760742 C 109.9045867919922 125.829719543457 106.21875 128 102.2235870361328 128 Z" stroke="none"/>
      <path d="M 49.77642822265625 18 C 49.05003356933594 18 48.37985992431641 18.39460754394531 48.02749633789062 19.02978515625 L 21.12239074707031 67.52978515625 C 20.78535461425781 68.13728332519531 20.78535461425781 68.86271667480469 21.12239074707031 69.47021484375 L 48.02749633789062 117.97021484375 C 48.37989044189453 118.6053924560547 49.05003356933594 119 49.77642822265625 119 L 102.2236022949219 119 C 102.9499969482422 119 103.6201019287109 118.6053924560547 103.9725036621094 117.9701766967773 L 130.8776397705078 69.47014617919922 C 131.2146453857422 68.86264038085938 131.214599609375 68.13728332519531 130.8776092529297 67.52978515625 L 103.9725036621094 19.02978515625 C 103.6201477050781 18.39460754394531 102.9499969482422 18 102.2236022949219 18 L 49.77642822265625 18 M 49.77642822265625 0 L 102.2236022949219 0 C 109.4913940429688 0 116.187141418457 3.942611694335938 119.7127532958984 10.29796600341797 L 146.6178588867188 58.79796600341797 C 149.9656372070312 64.83278656005859 149.9656372070312 72.16721343994141 146.6178588867188 78.20199584960938 L 119.7127532958984 126.7019958496094 C 116.187141418457 133.0573883056641 109.4913940429688 137 102.2236022949219 137 L 49.77642822265625 137 C 42.50864410400391 137 35.81285858154297 133.0573883056641 32.28724670410156 126.7019958496094 L 5.38214111328125 78.20203399658203 C 2.03436279296875 72.16721343994141 2.03436279296875 64.83278656005859 5.38214111328125 58.79796600341797 L 32.28724670410156 10.29796600341797 C 35.81285858154297 3.942611694335938 42.50864410400391 0 49.77642822265625 0 Z" stroke="none" fill="#86456e"/>
    </g>
    <line id="Line_18" data-name="Line 18" y1="51" x2="26" transform="translate(1038.5 277.5)" fill="none" stroke="#cdc3d3" stroke-width="7"/>
    <path id="Path_1" data-name="Path 1" d="M-258.1-65.7V-4.3A4.247,4.247,0,0,0-253.9,0h7.4a4.247,4.247,0,0,0,4.2-4.3V-23.8a4.228,4.228,0,0,1,4.1-4.3h21a4.225,4.225,0,0,0,4.2-4.2V-65.7a4.247,4.247,0,0,0-4.2-4.3h-36.7A4.247,4.247,0,0,0-258.1-65.7Zm27.7,23.8h-7.8a4.165,4.165,0,0,1-4.1-4.3v-7.5a4.165,4.165,0,0,1,4.1-4.3h7.8a4.247,4.247,0,0,1,4.2,4.3v7.5A4.247,4.247,0,0,1-230.4-41.9Zm26.4-20V-8.1A7.942,7.942,0,0,0-196.2,0h28.9a7.942,7.942,0,0,0,7.8-8.1V-61.9a7.942,7.942,0,0,0-7.8-8.1h-28.9A7.942,7.942,0,0,0-204-61.9Zm22.3,47.8a8.049,8.049,0,0,1-7.9-8.2V-47.7a8.049,8.049,0,0,1,7.9-8.2,8.031,8.031,0,0,1,7.8,8.2v25.4A8.031,8.031,0,0,1-181.7-14.1Zm48.9-3.1V-66.6c0-1.8-1.8-3.4-4-3.4h-8.8a3.766,3.766,0,0,0-3.9,3.4V-3.4A3.766,3.766,0,0,0-145.6,0h37.2c2.2,0,4-1.6,4-3.4v-7.2c0-1.8-1.8-3.4-4-3.4h-20.5C-131-14-132.8-15.4-132.8-17.2Zm50.7,0V-66.6c0-1.8-1.8-3.4-4-3.4h-8.8a3.766,3.766,0,0,0-3.9,3.4V-3.4A3.766,3.766,0,0,0-94.9,0h37.2c2.2,0,4-1.6,4-3.4v-7.2c0-1.8-1.8-3.4-4-3.4H-78.2C-80.3-14-82.1-15.4-82.1-17.2ZM31-46.4V-62.9S29.8-70,23.1-70H-8s-5.7.9-5.7,6.4V-8s-.6,8,6.1,8H24.6s6.7-2.3,6.7-8,.4-20.2.4-20.2a7.7,7.7,0,0,0-7.1-6.2C29.6-35.7,31-37.2,31-46.4Zm-13.3-4a4.177,4.177,0,0,1-4,4.4H3.4a4.114,4.114,0,0,1-4-4.4V-53a4,4,0,0,1,4-4.2H13.7a4.059,4.059,0,0,1,4,4.2Zm0,32.4a4.087,4.087,0,0,1-4,4.3H3.4A4.027,4.027,0,0,1-.6-18v-2.5a4.2,4.2,0,0,1,4-4.5H13.7a4.269,4.269,0,0,1,4,4.5ZM72.1-64.9v43.8A5.143,5.143,0,0,1,67-15.9H61.5a5.143,5.143,0,0,1-5.1-5.2V-64.9A5.209,5.209,0,0,0,51.2-70h-6a5.188,5.188,0,0,0-5.1,5.1V-5.2A5.208,5.208,0,0,0,45.2,0H83.3a5.124,5.124,0,0,0,5-5.2V-64.9a5.1,5.1,0,0,0-5-5.1H77.2A5.188,5.188,0,0,0,72.1-64.9Zm26.2.4V-5.7c0,3,2.2,5.6,4.9,5.6h22.2c10.3,0,18.7-9.6,18.7-21.6V-48.5c0-12-8.4-21.6-18.7-21.6H103.2C100.5-70.1,98.3-67.5,98.3-64.5Zm26.2,49.6h-6.9c-2.7,0-4.9-2.6-4.9-5.7V-49.5c0-3.1,2.2-5.7,4.9-5.7h6.9c2.7,0,4.9,2.6,4.9,5.7v28.9C129.4-17.5,127.2-14.9,124.5-14.9Zm29.6-49.6V-5.7c0,3,2.2,5.6,4.9,5.6h22.2c10.3,0,18.7-9.6,18.7-21.6V-48.5c0-12-8.4-21.6-18.7-21.6H159C156.3-70.1,154.1-67.5,154.1-64.5Zm26.2,49.6h-6.9c-2.7,0-4.9-2.6-4.9-5.7V-49.5c0-3.1,2.2-5.7,4.9-5.7h6.9c2.7,0,4.9,2.6,4.9,5.7v28.9C185.2-17.5,183-14.9,180.3-14.9Zm64.1-53-7.7,17.1a2.914,2.914,0,0,1-5.5,0L223.5-68a3.033,3.033,0,0,0-2.7-1.9L212-70c-2.3,0-3.8,2.7-2.8,5L225-28.7a3.339,3.339,0,0,1,.3,1.5V-3.5A3.348,3.348,0,0,0,228.4,0h10.8a3.348,3.348,0,0,0,3.1-3.5V-27.2a3.339,3.339,0,0,1,.3-1.5l16.2-36c1-2.4-.5-5.1-2.8-5.1h-8.8A3.173,3.173,0,0,0,244.4-67.9Z" transform="translate(1233 338)" fill="#cdc3d3"/>
    <line id="Line_8" data-name="Line 8" y1="31" x2="18" transform="translate(834.5 272.5)" fill="none" stroke="#c4acd3" stroke-linecap="round" stroke-width="7"/>
    <line id="Line_9" data-name="Line 9" x1="34" transform="translate(852.5 272.5)" fill="none" stroke="#c4acd3" stroke-linecap="round" stroke-width="7"/>
    <line id="Line_10" data-name="Line 10" x2="18" y2="31" transform="translate(834.5 303.5)" fill="none" stroke="#c4acd3" stroke-linecap="round" stroke-width="7"/>
    <line id="Line_11" data-name="Line 11" x2="17" y2="31" transform="translate(886.5 272.5)" fill="none" stroke="#623c79" stroke-linecap="round" stroke-width="7"/>
    <line id="Line_12" data-name="Line 12" x2="34" transform="translate(852.5 334.5)" fill="none" stroke="#623c79" stroke-linecap="round" stroke-width="7"/>
    <line id="Line_13" data-name="Line 13" x1="17" y2="31" transform="translate(886.5 303.5)" fill="none" stroke="#623c79" stroke-linecap="round" stroke-width="7"/>
    <line id="Line_16" data-name="Line 16" y1="31" x2="16" transform="translate(852.5 303.5)" fill="none" stroke="#623c79" stroke-linecap="round" stroke-width="7"/>
    <line id="Line_17" data-name="Line 17" x1="35" transform="translate(868.5 303.5)" fill="none" stroke="#623c79" stroke-linecap="round" stroke-width="7"/>
    <line id="Line_14" data-name="Line 14" x1="34" transform="translate(834.5 303.5)" fill="none" stroke="#c4acd3" stroke-linecap="round" stroke-width="7"/>
    <line id="Line_15" data-name="Line 15" y1="31" x2="18" transform="translate(868.5 272.5)" fill="none" stroke="#c4acd3" stroke-linecap="round" stroke-width="7"/>
  </g>
</svg>
