<svg id="Layer_1" data-name="Layer 1" xmlns="http://www.w3.org/2000/svg" viewBox="0 0 469.77 214.71"><defs><style>.cls-1,.cls-3{fill:none;}.cls-2{fill:#7f6491;fill-rule:evenodd;}.cls-3{stroke:#7f6491;stroke-linejoin:round;stroke-width:28.22px;}.cls-4{font-size:69px;fill:#dfcfea;font-family:FredokaOne-Regular, Fredoka One;}.cls-5{letter-spacing:-0.01em;}</style></defs><title>Poll Buddy Logo 4</title><g id="id6"><rect class="cls-1" x="14.08" y="93.42" width="123.7" height="99.3"/><path class="cls-2" d="M137.73,143.06a42.39,42.39,0,0,1-8.28,24.8A57.61,57.61,0,0,1,106.83,186,75.26,75.26,0,0,1,45,186a57.61,57.61,0,0,1-22.62-18.17,41.28,41.28,0,0,1,0-49.6A57.61,57.61,0,0,1,45,100.09a75.26,75.26,0,0,1,61.82,0,57.61,57.61,0,0,1,22.62,18.17,42.39,42.39,0,0,1,8.28,24.8Z"/><path class="cls-3" d="M137.73,143.06a42.39,42.39,0,0,1-8.28,24.8A57.61,57.61,0,0,1,106.83,186,75.26,75.26,0,0,1,45,186a57.61,57.61,0,0,1-22.62-18.17,41.28,41.28,0,0,1,0-49.6A57.61,57.61,0,0,1,45,100.09a75.26,75.26,0,0,1,61.82,0,57.61,57.61,0,0,1,22.62,18.17,42.39,42.39,0,0,1,8.28,24.8Z"/></g><g id="id3"><rect class="cls-1" x="79.48" y="53.74" width="139.72" height="146.92"/><path class="cls-2" d="M219.14,127.19a76.39,76.39,0,0,1-9.35,36.7,71.73,71.73,0,0,1-25.54,26.88,66.9,66.9,0,0,1-69.82,0,71.5,71.5,0,0,1-25.57-26.88,76.72,76.72,0,0,1,0-73.41A71.66,71.66,0,0,1,114.4,63.6a66.9,66.9,0,0,1,69.82,0,71.58,71.58,0,0,1,25.57,26.88,76.4,76.4,0,0,1,9.35,36.71Z"/><path class="cls-3" d="M219.14,127.19a76.39,76.39,0,0,1-9.35,36.7,71.73,71.73,0,0,1-25.54,26.88,66.9,66.9,0,0,1-69.82,0,71.5,71.5,0,0,1-25.57-26.88,76.72,76.72,0,0,1,0-73.41A71.66,71.66,0,0,1,114.4,63.6a66.9,66.9,0,0,1,69.82,0,71.58,71.58,0,0,1,25.57,26.88,76.4,76.4,0,0,1,9.35,36.71Z"/></g><g id="id4"><rect class="cls-1" x="149.27" y="14.08" width="190.12" height="182.64"/><path class="cls-2" d="M339.33,105.39A88.57,88.57,0,0,1,326.6,151a93,93,0,0,1-34.78,33.42,98.47,98.47,0,0,1-95,0A93.19,93.19,0,0,1,162,151a88.22,88.22,0,0,1,0-91.27A93.19,93.19,0,0,1,196.8,26.33a98.47,98.47,0,0,1,95,0A93,93,0,0,1,326.6,59.75a88.57,88.57,0,0,1,12.73,45.64Z"/><path class="cls-3" d="M339.33,105.39A88.57,88.57,0,0,1,326.6,151a93,93,0,0,1-34.78,33.42,98.47,98.47,0,0,1-95,0A93.19,93.19,0,0,1,162,151a88.22,88.22,0,0,1,0-91.27A93.19,93.19,0,0,1,196.8,26.33a98.47,98.47,0,0,1,95,0A93,93,0,0,1,326.6,59.75a88.57,88.57,0,0,1,12.73,45.64Z"/></g><g id="id5"><rect class="cls-1" x="246.21" y="69.61" width="209.51" height="119.14"/><path class="cls-2" d="M455.66,129.17c0,10.46-4.84,20.72-14,29.76s-22.39,16.56-38.32,21.8a175.95,175.95,0,0,1-104.71,0c-15.93-5.24-29.14-12.75-38.33-21.8s-14-19.3-14-29.76,4.85-20.72,14-29.76,22.4-16.56,38.33-21.8a175.95,175.95,0,0,1,104.71,0c15.93,5.24,29.14,12.75,38.32,21.8s14,19.3,14,29.76Z"/><path class="cls-3" d="M455.66,129.17c0,10.46-4.84,20.72-14,29.76s-22.39,16.56-38.32,21.8a175.95,175.95,0,0,1-104.71,0c-15.93-5.24-29.14-12.75-38.33-21.8s-14-19.3-14-29.76,4.85-20.72,14-29.76,22.4-16.56,38.33-21.8a175.95,175.95,0,0,1,104.71,0c15.93,5.24,29.14,12.75,38.32,21.8s14,19.3,14,29.76Z"/></g><text class="cls-4" transform="translate(69.86 152.38)">Poll Bud<tspan class="cls-5" x="273.3" y="0">d</tspan><tspan x="313.88" y="0">y</tspan></text></svg>